<svg xmlns="http://www.w3.org/2000/svg" width="24" height="24" data-icon-name="view-off-navigation-small-lined" fill="#007fc5">
  <path fill-rule="evenodd" d="M3.71 2.29a1.004 1.004 0 1 0-1.42 1.42l2.54 2.53a11.78 11.78 0 0 0-3.59 4.59 3 3 0 0 0 0 2.34A11.13 11.13 0 0 0 11.87 20a12 12 0 0 0 5.45-1.23l2.95 2.95a1.002 1.002 0 0 0 1.638-.325 1 1 0 0 0-.219-1.095L3.71 2.29Zm5.59 8.43 4 4A3 3 0 0 1 12 15a3 3 0 0 1-3-3 3 3 0 0 1 .3-1.28ZM11.87 18a9.18 9.18 0 0 1-8.79-5.63.87.87 0 0 1 0-.74 9.57 9.57 0 0 1 3.18-4l1.58 1.62a5 5 0 0 0 6.91 6.91l1.07 1.08a10.22 10.22 0 0 1-3.95.76Z" clip-rule="evenodd"></path>
  <path d="M22.76 10.83A11.13 11.13 0 0 0 12.13 4h-1.08a1.003 1.003 0 1 0 .16 2 9.41 9.41 0 0 1 .92 0 9.18 9.18 0 0 1 8.79 5.63.87.87 0 0 1 0 .74c-.316.71-.712 1.38-1.18 2a1 1 0 0 0 .19 1.4 1 1 0 0 0 1.4-.2 11.896 11.896 0 0 0 1.43-2.43 2.999 2.999 0 0 0 0-2.31Z"></path>
  <path d="M15.278 11.8a1 1 0 0 1-.369-.55 3 3 0 0 0-2.12-2.13 1 1 0 1 1 .5-1.93 5 5 0 0 1 3.59 3.59 1 1 0 0 1-.72 1.22c-.082.01-.166.01-.25 0a1 1 0 0 1-.631-.2Z"></path>
</svg>
