<svg xmlns="http://www.w3.org/2000/svg" width="20" height="20" viewBox="0 0 24 24" fill="none">
  <path fill="#007fc7" fill-rule="evenodd" d="M9.223 7.843a5 5 0 1 1 5.555 8.315 5 5 0 0 1-5.555-8.315Zm1.11 6.651a3 3 0 1 0 3.334-4.987 3 3 0 0 0-3.333 4.987Z" clip-rule="evenodd"></path>
  <path fill="#007fc7" fill-rule="evenodd" d="M18.378 5.76a11.13 11.13 0 0 1 4.252 5.07 3.001 3.001 0 0 1 0 2.34A11.13 11.13 0 0 1 12 20a11.13 11.13 0 0 1-10.63-6.83 3 3 0 0 1 0-2.34A11.13 11.13 0 0 1 12 4a11.13 11.13 0 0 1 6.378 1.76Zm-1.105 10.796a9.181 9.181 0 0 0 3.517-4.186.87.87 0 0 0 0-.74A9.18 9.18 0 0 0 12 6a9.18 9.18 0 0 0-8.79 5.63.87.87 0 0 0 0 .74A9.18 9.18 0 0 0 12 18a9.18 9.18 0 0 0 5.273-1.444Z" clip-rule="evenodd"></path>
</svg>
