<svg xmlns="http://www.w3.org/2000/svg" width="24" height="24" data-icon-name="info-navigation-small-lined" aria-labelledby="info-navigation-small-lined-title-id" fill="#007fc7">
  <title id="info-navigation-small-lined-title-id">Ícone de mais informações</title>
  <path d="M14 15.9h-1v-5c0-.6-.4-1-1-1h-2c-.6 0-1 .4-1 1s.4 1 1 1h1v4h-1c-.6 0-1 .4-1 1s.4 1 1 1h4c.6 0 1-.4 1-1s-.4-1-1-1Zm-1-8.5c0 .8-.7 1.5-1.5 1.5S10 8.2 10 7.4s.7-1.5 1.5-1.5 1.5.7 1.5 1.5Z"></path>
  <path fill-rule="evenodd" d="M12 1C6.8 1 2.3 4.7 1.2 9.8c-.1.7-.2 1.5-.2 2.2 0 6.1 4.9 11 11 11s11-4.9 11-11S18.1 1 12 1Zm0 20c-5 0-9-4-9-9 0-.6.1-1.2.2-1.8 1-4.9 5.7-8 10.6-7 4.9 1 8 5.7 7 10.6C20 18 16.3 21 12 21Z" clip-rule="evenodd"></path>
</svg>
